<svg xmlns="http://www.w3.org/2000/svg" width="26" height="28.5" viewBox="0 0 26 28.5">
  <g id="Polygon_2" data-name="Polygon 2" transform="translate(0 28.5) rotate(-90)" fill="none">
    <path d="M11.619,4.8a3,3,0,0,1,5.262,0l9.185,16.758A3,3,0,0,1,23.435,26H5.065a3,3,0,0,1-2.631-4.442Z" stroke="none"/>
    <path d="M 14.24999904632568 5.041887283325195 C 14.03630924224854 5.041887283325195 13.50598907470703 5.102617263793945 13.19768905639648 5.665138244628906 L 4.012958526611328 22.42324829101562 C 3.716259002685547 22.9645881652832 3.927978515625 23.43457794189453 4.032768249511719 23.61151695251465 C 4.137569427490234 23.7884578704834 4.447959899902344 24.19999694824219 5.065269470214844 24.19999694824219 L 23.43472862243652 24.19999694824219 C 24.05204010009766 24.19999694824219 24.36242866516113 23.7884578704834 24.46722793579102 23.61151695251465 C 24.57201957702637 23.43457794189453 24.78373908996582 22.9645881652832 24.48703956604004 22.42324829101562 L 15.30230903625488 5.66514778137207 C 14.99399948120117 5.102617263793945 14.46368885040283 5.041887283325195 14.24999904632568 5.041887283325195 M 14.24999904632568 3.241891860961914 C 15.28073120117188 3.241891860961914 16.31146430969238 3.761266708374023 16.88077926635742 4.800018310546875 L 26.06550979614258 21.55812835693359 C 27.16125869750977 23.55739784240723 25.71457862854004 25.99999809265137 23.43472862243652 25.99999809265137 L 5.065269470214844 25.99999809265137 C 2.785419464111328 25.99999809265137 1.338739395141602 23.55739784240723 2.434488296508789 21.55812835693359 L 11.61921882629395 4.800018310546875 C 12.18853378295898 3.761266708374023 13.21926689147949 3.241891860961914 14.24999904632568 3.241891860961914 Z" stroke="none" fill="#fff"/>
  </g>
</svg>
