<svg xmlns="http://www.w3.org/2000/svg" width="19" height="22.618" viewBox="0 0 19 22.618">
  <path id="hot" d="M153.829-840.448a6.751,6.751,0,0,0,.661,2.945,6.514,6.514,0,0,0,1.874,2.34,2.931,2.931,0,0,1-.174-.584,3.25,3.25,0,0,1-.058-.6,4.556,4.556,0,0,1,.437-1.572,5,5,0,0,1,.971-1.344l3.481-3.439,3.5,3.439a5,5,0,0,1,.971,1.344,4.311,4.311,0,0,1,.421,1.572,3.249,3.249,0,0,1-.058.6,3.861,3.861,0,0,1-.157.584,6.836,6.836,0,0,0,1.858-2.34,6.616,6.616,0,0,0,.677-2.945,7.007,7.007,0,0,0-.6-2.816,8.7,8.7,0,0,0-1.727-2.56,5.866,5.866,0,0,1-1.262.606,3.971,3.971,0,0,1-1.276.221,4.1,4.1,0,0,1-2.9-1.094,4.341,4.341,0,0,1-1.361-2.851v-.578a14.385,14.385,0,0,0-2.189,2,14.164,14.164,0,0,0-1.657,2.268,11.178,11.178,0,0,0-1.059,2.411A8.281,8.281,0,0,0,153.829-840.448Zm7.193.956-1.87,1.858a2.516,2.516,0,0,0-.585.823,2.445,2.445,0,0,0-.192.977,2.445,2.445,0,0,0,.776,1.831,2.6,2.6,0,0,0,1.874.748,2.585,2.585,0,0,0,1.871-.752,2.464,2.464,0,0,0,.773-1.837,2.419,2.419,0,0,0-.191-.961,2.652,2.652,0,0,0-.563-.823Zm.245-14.074v4.21a1.979,1.979,0,0,0,.608,1.474,2.048,2.048,0,0,0,1.488.595,1.989,1.989,0,0,0,.869-.192,2.02,2.02,0,0,0,.717-.594l.635-.8A9.7,9.7,0,0,1,169.2-845.3a9.435,9.435,0,0,1,1.324,4.849,9.175,9.175,0,0,1-2.761,6.743,9.168,9.168,0,0,1-6.74,2.762,9.167,9.167,0,0,1-6.739-2.761,9.17,9.17,0,0,1-2.76-6.739,12.272,12.272,0,0,1,2.61-7.342A19.014,19.014,0,0,1,161.266-853.566Z" transform="translate(-151.521 853.566)" fill="#bbcfef"/>
</svg>
