<svg xmlns="http://www.w3.org/2000/svg" width="12.039" height="15" viewBox="0 0 12.039 15">
  <path id="location_on_FILL0_wght700_GRAD200_opsz48" d="M151.009-888.644a1.313,1.313,0,0,0,.947-.389,1.259,1.259,0,0,0,.4-.936,1.3,1.3,0,0,0-.4-.947,1.293,1.293,0,0,0-.947-.4,1.262,1.262,0,0,0-.937.4,1.31,1.31,0,0,0-.39.947,1.278,1.278,0,0,0,.389.937A1.275,1.275,0,0,0,151.009-888.644Zm0,5.49a19.88,19.88,0,0,0,3.323-3.718,5.659,5.659,0,0,0,1.073-2.958,4.416,4.416,0,0,0-1.272-3.272,4.253,4.253,0,0,0-3.121-1.266A4.227,4.227,0,0,0,147.9-893.1a4.425,4.425,0,0,0-1.266,3.263,5.524,5.524,0,0,0,1.091,2.947A22.664,22.664,0,0,0,151.011-883.153Zm0,2.153a25.255,25.255,0,0,1-4.512-4.768,7.37,7.37,0,0,1-1.5-4.062,5.826,5.826,0,0,1,1.811-4.5,5.993,5.993,0,0,1,4.2-1.674,6.037,6.037,0,0,1,4.208,1.676,5.813,5.813,0,0,1,1.825,4.5,7.335,7.335,0,0,1-1.507,4.058A25.536,25.536,0,0,1,151.011-881ZM151.011-889.828Z" transform="translate(-145 896)" fill="#ff7ec3"/>
</svg>
