<svg xmlns="http://www.w3.org/2000/svg" width="33.054" height="28.998" viewBox="0 0 33.054 28.998">
  <g id="Group_4649" data-name="Group 4649" transform="translate(-6446.025 -384.91)">
    <path id="Icon" d="M8.739,7.143a1.1,1.1,0,0,1-.971,1.191H1.942L0,10.715V1.191A1.1,1.1,0,0,1,.971,0h6.8a1.1,1.1,0,0,1,.971,1.191Z" transform="translate(6469.34 388.264)" fill="none" stroke="#fff" stroke-linecap="round" stroke-linejoin="round" stroke-width="2"/>
    <path id="Subtraction_1" data-name="Subtraction 1" d="M14.5,29A14.5,14.5,0,0,1,4.247,4.247,14.4,14.4,0,0,1,14.5,0c.316,0,.636.01.95.03s.629.051.939.091.62.09.925.15.61.13.909.208.6.168.89.266.585.206.87.323.57.244.847.378.554.28.822.433V3.888A12.795,12.795,0,0,0,1.7,14.5a12.935,12.935,0,0,0,.073,1.369,12.751,12.751,0,0,0,2.322,6.076c.25.348.52.687.8,1.009s.586.631.9.923a9.049,9.049,0,0,1,5.264-5.91A6.358,6.358,0,0,1,8.978,15.73a6.312,6.312,0,1,1,11.043,0,6.358,6.358,0,0,1-2.084,2.237,9.045,9.045,0,0,1,5.264,5.91c.314-.291.616-.6.9-.923s.554-.661.8-1.009A12.807,12.807,0,0,0,26.195,19.7a12.7,12.7,0,0,0,1.032-3.83A12.937,12.937,0,0,0,27.3,14.5c0-.278-.009-.56-.027-.836h1.7c.016.277.024.558.024.836A14.5,14.5,0,0,1,14.5,29Zm0-10.01a7.45,7.45,0,0,0-1.319.117,7.311,7.311,0,0,0-5.911,5.95,12.759,12.759,0,0,0,14.461,0,7.317,7.317,0,0,0-5.911-5.95A7.451,7.451,0,0,0,14.5,18.988Zm0-10.919a4.61,4.61,0,1,0,4.61,4.61A4.615,4.615,0,0,0,14.5,8.069Z" transform="translate(6446.025 384.91)" fill="#fff"/>
  </g>
</svg>
