<svg xmlns="http://www.w3.org/2000/svg" width="29.319" height="20" viewBox="0 0 29.319 20">
  <path id="sports_esports_FILL0_wght300_GRAD200_opsz48" d="M79.759-735a2.516,2.516,0,0,1-2.077-1,3.16,3.16,0,0,1-.611-2.439L78.788-750.4a5.235,5.235,0,0,1,1.735-3.229A4.908,4.908,0,0,1,83.946-755H99.474a4.883,4.883,0,0,1,3.39,1.37,5.343,5.343,0,0,1,1.768,3.225l1.681,11.966a3.007,3.007,0,0,1-.593,2.421A2.5,2.5,0,0,1,103.675-735a3.52,3.52,0,0,1-1.353-.246,2.685,2.685,0,0,1-.977-.663l-3.811-3.757H85.868l-3.793,3.757a3.1,3.1,0,0,1-1,.663A3.359,3.359,0,0,1,79.759-735Zm.627-2.283,4.506-4.506H98.528l4.506,4.506a1.756,1.756,0,0,0,.561.286.541.541,0,0,0,.517-.3,1.209,1.209,0,0,0,.137-.652l-1.7-12.127a3.413,3.413,0,0,0-1.1-2.01,2.852,2.852,0,0,0-1.945-.787H83.91a2.921,2.921,0,0,0-1.958.779,3.139,3.139,0,0,0-1.063,2.018l-1.717,12.135a.929.929,0,0,0,.119.646.579.579,0,0,0,.533.3A.852.852,0,0,0,80.386-737.282ZM99.6-743.575a1.419,1.419,0,0,0,1.026-.434,1.383,1.383,0,0,0,.442-1.018,1.42,1.42,0,0,0-.434-1.026,1.383,1.383,0,0,0-1.018-.442,1.42,1.42,0,0,0-1.026.434,1.383,1.383,0,0,0-.442,1.018,1.42,1.42,0,0,0,.434,1.026A1.383,1.383,0,0,0,99.6-743.575Zm-3.108-4.666a1.428,1.428,0,0,0,1.019-.434,1.373,1.373,0,0,0,.449-1.018,1.409,1.409,0,0,0-.441-1.026,1.39,1.39,0,0,0-1.011-.442,1.42,1.42,0,0,0-1.026.434,1.383,1.383,0,0,0-.442,1.018,1.42,1.42,0,0,0,.434,1.026A1.383,1.383,0,0,0,96.49-748.241ZM85.25-743.8h1.759v-2.671h2.685v-1.759H87.009v-2.685H85.25v2.685H82.579v1.759H85.25ZM91.728-744.94Z" transform="translate(-77.039 754.999)" fill="#fff"/>
</svg>
