<svg xmlns="http://www.w3.org/2000/svg" width="23.961" height="22.912" viewBox="0 0 23.961 22.912">
  <path id="science_FILL0_wght600_GRAD200_opsz48" d="M88.684-831.523a2.36,2.36,0,0,1-2.348-1.485,2.409,2.409,0,0,1,.463-2.757l7.44-8.383v-7.756H93.089a1.226,1.226,0,0,1-.9-.365,1.226,1.226,0,0,1-.366-.9,1.218,1.218,0,0,1,.366-.891,1.22,1.22,0,0,1,.9-.369h9.971a1.251,1.251,0,0,1,.9.368,1.208,1.208,0,0,1,.381.9,1.2,1.2,0,0,1-.367.9,1.263,1.263,0,0,1-.914.354h-1.12v7.756l7.427,8.383a2.408,2.408,0,0,1,.435,2.757,2.365,2.365,0,0,1-2.337,1.485Zm-.021-2.53H107.5l-8.1-9.179v-8.673H96.77v8.673ZM98.014-842.994Z" transform="translate(-86.094 854.435)" fill="#ffa5a5"/>
</svg>
