<svg xmlns="http://www.w3.org/2000/svg" width="15" height="15" viewBox="0 0 15 15">
  <path id="language_FILL0_wght700_GRAD200_opsz48" d="M66.5-887a7.521,7.521,0,0,1-2.932-.569,7.308,7.308,0,0,1-2.393-1.61,7.456,7.456,0,0,1-1.6-2.41A7.593,7.593,0,0,1,59-894.535a7.532,7.532,0,0,1,.569-2.937,7.08,7.08,0,0,1,1.6-2.367,7.727,7.727,0,0,1,2.392-1.584A7.427,7.427,0,0,1,66.5-902a7.367,7.367,0,0,1,2.928.578,7.754,7.754,0,0,1,2.384,1.584,7.186,7.186,0,0,1,1.61,2.369A7.458,7.458,0,0,1,74-894.527a7.464,7.464,0,0,1-.578,2.94,7.585,7.585,0,0,1-1.61,2.407,7.321,7.321,0,0,1-2.388,1.61A7.483,7.483,0,0,1,66.5-887Zm-.023-1.566a5.536,5.536,0,0,0,.988-1.415,9.682,9.682,0,0,0,.685-1.966H64.854a8.3,8.3,0,0,0,.642,1.925A6.115,6.115,0,0,0,66.473-888.566Zm-1.441-.214a6.771,6.771,0,0,1-.745-1.411,12,12,0,0,1-.518-1.756h-2.6a6.308,6.308,0,0,0,1.5,1.947A7.209,7.209,0,0,0,65.032-888.779Zm2.9-.018a5.928,5.928,0,0,0,2.251-1.192,7.277,7.277,0,0,0,1.628-1.957h-2.56a11.909,11.909,0,0,1-.554,1.735A7.5,7.5,0,0,1,67.932-888.8Zm-7.1-4.146h2.757a7.048,7.048,0,0,1-.08-.854q-.009-.374-.009-.729,0-.445.018-.774a6.942,6.942,0,0,1,.089-.756H60.833q-.107.427-.161.747a4.86,4.86,0,0,0-.053.783,5.432,5.432,0,0,0,.053.8Q60.726-893.37,60.833-892.943Zm3.826,0h3.683q.053-.552.062-.89t.009-.694q0-.356-.009-.667t-.063-.863H64.658q-.071.552-.089.863t-.018.667q0,.356.018.694T64.659-892.943Zm4.733,0h2.758q.071-.427.133-.783a4.669,4.669,0,0,0,.062-.8,4.179,4.179,0,0,0-.062-.783q-.062-.32-.133-.747h-2.74q.018.658.036.955t.018.575q0,.374-.027.712T69.391-892.943Zm-.158-4.128h2.578a6.515,6.515,0,0,0-1.593-2.011,5.368,5.368,0,0,0-2.3-1.139,8.447,8.447,0,0,1,.765,1.406A10.587,10.587,0,0,1,69.234-897.071Zm-4.38,0h3.31a6.577,6.577,0,0,0-.614-1.786,5.858,5.858,0,0,0-1.077-1.524,3.812,3.812,0,0,0-.9,1.219A11.054,11.054,0,0,0,64.854-897.071Zm-3.683,0h2.612a11.013,11.013,0,0,1,.484-1.682,7.828,7.828,0,0,1,.747-1.45,5.382,5.382,0,0,0-2.3,1.1A5.92,5.92,0,0,0,61.171-897.071Z" transform="translate(-59 902)" fill="#ff7ec3"/>
</svg>
