<svg xmlns="http://www.w3.org/2000/svg" width="52" height="52" viewBox="0 0 52 52">
  <g id="Arrow" transform="translate(-17 -68)">
    <circle id="Ellipse_2" data-name="Ellipse 2" cx="25" cy="25" r="25" transform="translate(18 69)" fill="rgba(168,144,255,0.36)" stroke="#000" stroke-width="2"/>
    <g id="Frame" transform="translate(33 85)">
      <rect id="Frame-2" data-name="Frame" width="19.828" height="17.01" fill="none"/>
      <path id="Vector" d="M19.836,8.5a1.42,1.42,0,0,1-1.416,1.416H4.837l4.674,4.66a1.463,1.463,0,0,1,.411,1.006,1.5,1.5,0,0,1-.411,1.02,1.463,1.463,0,0,1-1.006.411,1.5,1.5,0,0,1-1.02-.411L.4,9.521a1.462,1.462,0,0,1-.3-.467,1.417,1.417,0,0,1,0-1.076A1.344,1.344,0,0,1,.418,7.5L7.5.414A1.422,1.422,0,0,1,9.511,2.425L4.837,7.085H18.419A1.42,1.42,0,0,1,19.836,8.5Z" transform="translate(-0.007 -0.004)" fill="#d8d8d8"/>
    </g>
  </g>
</svg>
